<svg width="143" height="113" viewBox="0 0 143 113" fill="none" xmlns="http://www.w3.org/2000/svg">
<path d="M97.8438 88.5938C97.2188 89.4688 96.5 90.125 95.6875 90.5625C94.875 91.0625 94.0938 91.4062 93.3438 91.5938C92.4688 91.8438 91.5312 91.9375 90.5312 91.875C90.1562 91.875 89.75 91.7812 89.3125 91.5938C88.9375 91.4688 88.5312 91.2812 88.0938 91.0312C87.6562 90.8438 87.2812 90.5312 86.9688 90.0938C86.0938 86.9688 85.3125 83.9375 84.625 81C83.9375 78.0625 83.3438 75.4375 82.8438 73.125C82.2188 70.4375 81.6875 67.9062 81.25 65.5312C79.5625 65.4688 77.0312 65.4688 73.6562 65.5312C70.3438 65.5312 66.75 65.7188 62.875 66.0938C61.6875 69.8438 60.75 73 60.0625 75.5625C59.375 78.125 58.875 80.25 58.5625 81.9375C58.25 83.625 58.125 85 58.1875 86.0625C58.25 87.1875 58.4375 88.1562 58.75 88.9688C57.875 89.8438 57 90.4688 56.125 90.8438C55.3125 91.2812 54.5625 91.5625 53.875 91.6875C53.0625 91.875 52.2812 91.9375 51.5312 91.875C50.5312 91.75 49.7188 91.5625 49.0938 91.3125C48.4688 91.125 48 90.7812 47.6875 90.2812C47.4375 89.8438 47.3438 89.1875 47.4062 88.3125C47.5312 87.4375 47.7812 86.2812 48.1562 84.8438C48.5312 83.5938 49.2188 81.375 50.2188 78.1875C51.2812 74.9375 52.4688 71.25 53.7812 67.125C51.4062 67.3125 49.5625 67.1875 48.25 66.75C47 66.3125 46.125 65.125 45.625 63.1875C46.625 62.875 47.6875 62.5938 48.8125 62.3438C50 62.0312 51.125 61.75 52.1875 61.5C53.375 61.25 54.5938 61.0312 55.8438 60.8438C57.1562 56.7188 58.5 52.6562 59.875 48.6562C61.25 44.6562 62.5312 41.0625 63.7188 37.875L69.1562 23.3438C69.2812 22.9688 69.9375 22.5625 71.125 22.125C72.3125 21.6875 73.625 21.3437 75.0625 21.0938C76.5 20.7812 77.875 20.625 79.1875 20.625C80.5 20.625 81.3438 20.9062 81.7188 21.4688C81.9062 22.7812 82.1562 24.4063 82.4688 26.3438C82.8438 28.2812 83.1875 30.1562 83.5 31.9688C83.875 34.0938 84.3125 36.2812 84.8125 38.5312C85.375 41.6562 85.9688 45.125 86.5938 48.9375C87.2812 52.75 88.125 56.8125 89.125 61.125C90.125 65.4375 91.3125 69.9062 92.6875 74.5312C94.0625 79.1562 95.7812 83.8438 97.8438 88.5938ZM71.7812 59.25C73.7812 59.1875 75.4375 59.1562 76.75 59.1562C78.0625 59.1562 79.1875 59.1875 80.125 59.25L79.8438 57.8438C79.4688 55.5312 79.0625 53.0625 78.625 50.4375C78.25 47.8125 77.8438 45.2188 77.4062 42.6562C77.0312 40.0938 76.6562 37.6562 76.2812 35.3438C75.9062 33.0312 75.5938 31 75.3438 29.25C74.7188 30.875 74 32.8438 73.1875 35.1562C72.375 37.4062 71.5 39.875 70.5625 42.5625C69.625 45.25 68.6562 48.0625 67.6562 51C66.7188 53.9375 65.7812 56.8438 64.8438 59.7188C65.9688 59.5938 67.0938 59.5 68.2188 59.4375C69.3438 59.375 70.5312 59.3125 71.7812 59.25Z" fill="black"/>
<path d="M64 43C61.2667 36.4722 49.24 23.3333 23 23" stroke="black" stroke-width="4" stroke-linecap="round" stroke-linejoin="round"/>
<path d="M62 47C52.1778 40.963 28.0267 32.5112 10 47" stroke="black" stroke-width="4" stroke-linecap="round" stroke-linejoin="round"/>
<path d="M59 51.1376C49.1266 50.2993 27.5038 52.8981 20 70" stroke="black" stroke-width="4" stroke-linecap="round" stroke-linejoin="round"/>
<path d="M82.9999 47C85.5308 40.4722 96.6666 27.3333 120.963 27" stroke="black" stroke-width="4" stroke-linecap="round" stroke-linejoin="round"/>
<path d="M84.8519 51C93.9465 44.963 116.309 36.5112 133 51" stroke="black" stroke-width="4" stroke-linecap="round" stroke-linejoin="round"/>
<path d="M87.6296 55.1376C96.7717 54.2993 116.793 56.8981 123.741 74" stroke="black" stroke-width="4" stroke-linecap="round" stroke-linejoin="round"/>
</svg>
