<svg width="114" height="128" viewBox="0 0 114 128" fill="none" xmlns="http://www.w3.org/2000/svg">
<g clip-path="url(#clip0)">
<path d="M4.55918 25.2388C4.55918 25.2388 5.63867 24.6695 6.8134 20.5894C6.8134 20.5894 9.19462 13.4412 13.7031 11.67C13.7031 11.67 17.5765 9.20297 27.0061 8.88668C27.0061 8.88668 27.0696 -0.190807 32.4671 4.26886C32.4671 4.26886 35.261 -4.04953 38.7217 2.71905C38.7217 2.71905 41.5792 7.49501 42.8174 13.2515C42.8174 13.2515 55.6125 22.2657 49.2626 43.1408C49.2626 43.1408 49.1356 44.1529 50.1992 44.485C50.1992 44.485 104.888 61.2325 89.6481 109.055C89.6481 109.055 100.935 116.944 99.3189 103.525C99.6695 104.104 94.0706 72.5916 100.576 70.1566C100.576 70.1566 109.017 65.3258 113.508 76.4188C115.3 80.847 111.112 87.7057 106.323 80.1762L104.856 77.8693C104.856 77.8693 103.872 79.0711 104.38 82.234C105.087 99.764 109.933 111.675 103.046 116.646C103.046 116.646 99.935 120.189 83.2982 118.924C83.2982 118.924 73.1383 130.689 49.7706 126.894C49.7706 126.894 37.3248 130.563 35.2928 124.111C35.2928 124.111 28.5619 128.033 24.8789 122.846C24.8789 122.846 22.466 119.05 26.9109 116.014C26.9109 116.014 30.3398 114.749 29.9589 112.851C29.9589 112.851 30.2129 103.109 24.6249 90.2045C24.6249 90.2045 12.9411 73.7575 14.4651 58.5756C14.4651 58.5756 16.751 54.6537 9.51212 50.7317C9.51212 50.7317 -1.02875 43.6468 1.00322 32.5134C1.00322 32.5134 -2.67972 23.1513 4.55918 25.2388V25.2388Z" fill="black" stroke="black" stroke-width="0.264583"/>
<path d="M10.5921 44.5329C10.5992 44.6101 9.92885 43.1498 15.7356 43.7738C16.9698 43.9065 17.5 44.2558 16.2436 45.1655C16.2436 45.1655 14.2433 46.8419 12.5288 46.2093C11.6902 45.9528 11.1417 45.242 10.5921 44.5329Z" fill="white"/>
<path d="M9.20364 42.0667C9.20364 42.0667 9.15876 45.4215 7.90151 42.5588C7.90151 42.5588 2.51343 32.2709 7.81171 28.603C7.81171 28.603 10.0523 27.5482 10.846 25.2077C10.846 25.2077 12.4365 17.2416 18.6328 15.8102C18.6328 15.8102 35.8012 8.98208 42.6591 23.2783C43.1599 24.1191 47.739 37.3216 38.2142 42.5087C38.2142 42.5087 29.7053 48.961 15.2275 42.0026C15.2275 42.0026 11.2466 42.0891 9.20364 42.0667Z" fill="white"/>
<path d="M33.0073 47.1581C33.0073 47.1581 38.2143 44.5962 40.024 45.4185C40.024 45.4185 42.2782 46.9367 40.1827 47.9805C40.1827 47.9805 35.5473 50.6689 34.3726 49.6568L33.0073 47.1581Z" fill="white"/>
<path d="M70.5989 70.4686C70.5989 70.4686 67.2654 51.5864 43.2943 49.9731C39.5592 49.9019 22.5943 59.714 24.2445 67.0527C24.2445 67.0527 24.6255 68.8239 27.1655 65.7875C27.1655 65.7875 34.4679 56.8049 39.8653 55.0337C41.7566 54.3697 45.3933 54.5362 42.4053 57.1212C42.4053 57.1212 32.8804 63.4786 28.1814 72.0501C28.1814 72.0501 26.5622 78.3126 31.2929 74.3906C34.4149 71.2944 38.0098 64.6817 44.9452 61.5493C46.3037 60.8856 51.0237 59.8379 48.0567 63.1307C48.0567 63.1307 34.4044 74.2008 34.5949 78.1861C34.5949 78.1861 35.2934 80.2103 37.1348 78.6921C37.1348 78.6921 48.3107 66.9894 53.4541 65.8508C53.4541 65.8508 57.0736 65.3447 55.0416 68.0016C55.0416 68.0016 43.9292 75.8455 42.5958 79.2614C42.5958 79.2614 40.4368 82.8039 44.5007 81.602C44.5007 81.602 56.1211 71.291 60.058 70.9747C60.058 70.9747 63.1695 70.9114 61.1375 73.9478C61.1375 73.9478 50.9777 81.0327 50.5332 83.3732C50.5332 83.3732 49.7077 85.2077 52.3746 84.6383C52.3746 84.6383 64.122 76.3516 66.916 75.9088C66.916 75.9088 71.4879 73.6315 70.5989 70.4686V70.4686Z" fill="white"/>
<path d="M29.5437 78.6559C29.5437 78.6559 28.2865 76.9561 27.0293 79.0137C27.0293 79.0137 25.3231 81.6975 26.9395 83.934C26.9395 83.934 30.801 90.3751 32.5072 97.8897C32.5072 97.8897 33.4052 101.558 34.4828 101.379C34.4828 101.379 35.6502 101.379 35.4706 96.1005C35.4706 96.1005 33.495 85.6337 29.5437 78.6559V78.6559Z" fill="white"/>
<path d="M32.6896 120.189C32.6896 120.189 29.6416 117.026 28.3082 119.177C28.3082 119.177 26.5302 122.53 29.2606 122.087C29.2606 122.087 30.9751 122.15 32.6896 120.189Z" fill="white"/>
<path d="M36.1442 105.673C36.1442 105.673 35.9197 102.855 34.6176 105.628C34.6176 105.628 33.54 114.485 32.3276 115.692C32.3276 115.692 32.4623 118.779 34.9768 118.063C34.9768 118.063 37.581 116.453 36.1442 105.673Z" fill="white"/>
<path d="M54.0257 122.72C54.0257 122.72 49.7078 120.316 41.1989 120.252C41.1989 120.252 38.4049 122.024 39.6114 123.036C39.6114 123.036 46.2788 125.819 54.0257 122.72V122.72Z" fill="white"/>
<path d="M73.0117 72.651C73.0117 72.651 71.0114 76.9525 69.043 77.3953C69.043 77.3953 72.1862 83.8476 74.9801 81.6652C74.9801 81.6652 77.2661 79.4196 76.3771 77.427C76.3771 77.427 74.1547 73.1571 73.0117 72.651Z" fill="white"/>
<path d="M78.949 80.9694C78.949 80.9694 77.5521 83.7528 75.3296 84.7965C75.3296 84.7965 77.8696 90.1418 79.0443 89.5092C79.0443 89.5092 82.124 88.3706 81.5525 85.777L78.949 80.9694Z" fill="white"/>
<path d="M82.8861 89.8255C82.8861 89.8255 80.6636 92.2609 79.2031 92.6088C79.2031 92.6088 80.4096 97.7011 80.9176 97.7011C80.9176 97.7011 82.2828 98.3969 84.2513 96.2462C84.2513 96.2462 84.537 89.7306 82.8861 89.8255Z" fill="white"/>
<path d="M79.7425 100.579C81.076 100.579 82.6 101.402 85.0765 100.073C85.0765 100.073 86.0925 115.129 74.5356 116.267C74.5356 116.267 72.8211 116.9 74.0911 115.065C74.0911 115.065 78.2186 111.523 72.9481 106.146C72.9481 106.146 71.4876 105.134 73.3926 104.691C73.3926 104.691 78.5678 103.458 79.7425 100.579V100.579Z" fill="white"/>
<path d="M53.5207 117.571C53.5207 117.571 58.1006 122.939 57.3822 116.766C57.3822 116.766 50.4674 96.1005 42.4751 93.6851C42.4751 93.6851 39.1525 91.9854 40.0505 95.5638C40.0505 95.5638 53.0159 112.422 53.5207 117.571Z" fill="white"/>
<path d="M41.3974 88.9438C41.3974 88.9438 38.6136 84.2918 47.6835 85.7232C47.6835 85.7232 58.2801 89.7489 72.3789 110.146C72.3789 110.146 75.6117 115.961 69.5052 112.919L41.3974 88.9438Z" fill="white"/>
<path d="M85.9658 112.472C86.2833 112.472 92.5062 113.041 93.1412 113.927C93.1412 113.927 93.5857 116.837 86.6643 114.749C86.6643 114.749 84.7593 113.547 85.9658 112.472Z" fill="white"/>
<path d="M99.858 111.443C99.858 111.443 97.4333 113.635 96.5802 113.814C96.5802 113.814 94.0658 115.469 96.221 115.469C96.221 115.469 99.6784 115.379 100.891 112.293C100.891 112.293 101.654 111.219 99.858 111.443Z" fill="white" stroke="white" stroke-width="0.264583"/>
<path d="M102.221 103.363C102.221 103.363 104.444 102.54 104.698 103.489C104.698 103.489 105.142 108.234 104.444 108.676C104.444 108.676 103.174 109.562 102.539 108.993L102.221 103.363Z" fill="white" stroke="white" stroke-width="0.264583"/>
<path d="M102.095 100.263L104.19 100.326C104.19 100.326 104.381 94.0638 103.428 94.127C103.428 94.127 101.777 93.368 101.777 95.0127C101.777 95.0127 101.65 99.8202 102.095 100.263V100.263Z" fill="white" stroke="white" stroke-width="0.264583"/>
<path d="M100.888 91.8498L102.856 91.4702L102.412 85.3975C102.412 85.3975 100.19 83.9425 99.9355 85.524L100.888 91.8498Z" fill="white" stroke="black" stroke-width="0.264583"/>
<path d="M99.6016 81.9903C99.8253 81.9522 101.502 82.333 101.502 82.333C101.502 82.333 102.616 77.0793 101.219 76.3177C99.8216 75.556 99.7852 78.0276 99.7852 78.0276L99.6016 81.9903Z" fill="white" stroke="black" stroke-width="0.254843"/>
<path d="M104.063 72.6194C105.46 72.4296 110.159 73.4417 110.095 74.3906C110.032 75.3395 108.317 75.4027 108.317 75.4027C108.317 75.4027 104.761 74.6436 104.19 74.3906C103.618 74.1376 104.063 72.6194 104.063 72.6194V72.6194Z" fill="white" stroke="black" stroke-width="0.264583"/>
<path d="M109.397 77.1107L110.73 76.6046C110.73 76.6046 112.191 80.0205 111.937 81.4755C111.683 82.9304 110.476 78.8186 109.397 77.1107Z" fill="white" stroke="black" stroke-width="0.264583"/>
<path d="M19.0816 20.0596C18.6295 19.6148 16.1795 18.5994 16.208 21.5357C16.208 21.5357 16.261 25.0041 13.1996 27.3058C12.8653 27.427 11.1693 28.8546 13.1996 29.1845C13.1996 29.1845 17.8693 30.0344 19.7102 27.9321C19.7102 27.9321 23.5461 24.452 19.0816 20.0596V20.0596Z" fill="black" stroke="black" stroke-width="0.264583"/>
</g>
<defs>
<clipPath id="clip0">
<rect width="114" height="128" fill="white"/>
</clipPath>
</defs>
</svg>
