<svg width="1440" height="1024" viewBox="0 0 1440 1024" fill="none" xmlns="http://www.w3.org/2000/svg">
<rect width="1440" height="1024" fill="#FFCECE"/>
<path d="M0 665C617 577.5 463 1067.5 1440 665V1024H0V665Z" fill="#C3AED6"/>
<path d="M0 0H1440V430C800.5 99.5 728.5 706.5 0 430V0Z" fill="#EFBBCF" fill-opacity="0.65"/>
<path d="M378.822 199C372.064 248.511 338.273 398.836 378.822 464.772C417.755 490.189 514.925 488.132 511.047 394.693C507.168 301.254 424.66 223.535 378.822 199Z" fill="#C4C4C4"/>
<path d="M378.778 199C491.326 297.108 516.621 458.993 408.125 463.891C446.971 489.286 514.577 487.896 510.707 394.533C506.837 301.17 424.513 223.515 378.778 199Z" fill="#A9A8A8"/>
<path d="M1025.73 206.933C1032.49 256.444 1066.28 406.77 1025.73 472.706C986.798 498.123 889.625 496.066 893.503 402.627C897.382 309.188 979.893 231.469 1025.73 206.933Z" fill="#C4C4C4"/>
<path d="M1025.62 206.933C912.952 304.904 887.63 466.562 996.238 471.453C957.352 496.813 889.676 495.424 893.55 402.193C897.424 308.961 979.833 231.414 1025.62 206.933Z" fill="#A9A8A8"/>
<rect x="264" y="368.248" width="911.47" height="559.752" rx="279.876" fill="#E4E4E4"/>
<rect x="301.023" y="454.635" width="838.306" height="416.068" rx="208.034" fill="#C4C4C4"/>
<rect x="301.023" y="454.635" width="838.306" height="416.068" rx="208.034" fill="#C4C4C4"/>
<ellipse cx="444.707" cy="756.108" rx="69.6385" ry="38.786" fill="#E49A9A"/>
<ellipse cx="444.707" cy="756.108" rx="69.6385" ry="38.786" fill="#E49A9A"/>
<ellipse cx="994.763" cy="762.278" rx="69.6385" ry="38.786" fill="#E49A9A"/>
<ellipse cx="994.763" cy="762.278" rx="69.6385" ry="38.786" fill="#E49A9A"/>
<path d="M406.125 574.47C388.448 568.493 343.034 562.939 302.786 588.538M414.736 588.538C398.269 584.401 359.078 582.856 334.06 609.779M414.736 567.574C400.459 552.954 365.65 526.196 340.632 536.127" stroke="#3D3939" stroke-width="5" stroke-linecap="round" stroke-linejoin="round"/>
<path d="M1034.16 574.47C1051.7 568.493 1096.75 562.939 1136.68 588.538M1025.62 588.538C1041.95 584.401 1080.84 582.856 1105.66 609.779M1025.62 567.574C1039.78 552.954 1074.31 526.196 1099.14 536.127" stroke="#3D3939" stroke-width="4" stroke-linecap="round" stroke-linejoin="round"/>
<circle cx="446.03" cy="648.124" r="98.2872" fill="#CE6300"/>
<path d="M483.03 581.278C454.382 548.663 334.498 570.701 371.521 680.888C373.747 649.887 416.059 581.278 483.03 581.278Z" fill="black" fill-opacity="0.33"/>
<path d="M544.317 648.124C544.317 702.406 500.312 746.411 446.03 746.411C391.747 746.411 347.742 702.406 347.742 648.124C347.742 593.841 391.747 549.837 446.03 549.837C500.312 549.837 544.317 593.841 544.317 648.124ZM371.331 648.124C371.331 689.379 404.775 722.822 446.03 722.822C487.284 722.822 520.728 689.379 520.728 648.124C520.728 606.869 487.284 573.426 446.03 573.426C404.775 573.426 371.331 606.869 371.331 648.124Z" fill="#272626"/>
<circle cx="994.322" cy="648.124" r="98.2872" fill="#CE6300"/>
<path d="M1033.97 581.278C1005.32 548.663 885.435 570.701 922.458 680.888C924.684 649.887 966.996 581.278 1033.97 581.278Z" fill="black" fill-opacity="0.33"/>
<path d="M1092.61 648.124C1092.61 702.406 1048.6 746.411 994.322 746.411C940.04 746.411 896.035 702.406 896.035 648.124C896.035 593.841 940.04 549.837 994.322 549.837C1048.6 549.837 1092.61 593.841 1092.61 648.124ZM919.624 648.124C919.624 689.379 953.068 722.822 994.322 722.822C1035.58 722.822 1069.02 689.379 1069.02 648.124C1069.02 606.869 1035.58 573.426 994.322 573.426C953.068 573.426 919.624 606.869 919.624 648.124Z" fill="#272626"/>
<circle cx="491.427" cy="629.172" r="19.393" fill="#D2D2D2"/>
<circle cx="1039.72" cy="629.172" r="19.393" fill="#D2D2D2"/>
<path d="M718.616 730.544C720.796 753.735 708.911 798.813 643.926 793.595" stroke="#313131" stroke-width="6" stroke-linecap="round" stroke-linejoin="round"/>
<path d="M723.479 730.544C721.479 753.735 732.385 798.813 792.018 793.595" stroke="#313131" stroke-width="6" stroke-linecap="round" stroke-linejoin="round"/>
<path d="M740.051 727.259C730.588 741.199 710.082 741.304 700.477 727.461L688.031 709.525C677.019 693.656 688.31 671.942 707.626 671.843L732.333 671.717C751.649 671.618 763.162 693.215 752.313 709.196L740.051 727.259Z" fill="#363636"/>
<path d="M753.947 706.137C752.474 705.129 750.816 704.421 749.068 704.053C747.321 703.686 745.518 703.667 743.763 703.996C742.008 704.326 740.335 704.997 738.84 705.973C737.345 706.949 736.056 708.21 735.048 709.684C734.04 711.158 733.333 712.816 732.965 714.563C732.598 716.311 732.579 718.113 732.908 719.868C733.237 721.623 733.909 723.296 734.885 724.791C735.861 726.286 737.122 727.575 738.596 728.583L746.272 717.36L753.947 706.137Z" fill="#2F2B2B"/>
<path d="M701.762 729.325C703.309 728.278 704.643 726.952 705.687 725.42C706.732 723.889 707.467 722.182 707.85 720.399C708.234 718.615 708.258 716.789 707.921 715.025C707.585 713.261 706.895 711.593 705.89 710.117C704.885 708.641 703.585 707.386 702.065 706.422C700.544 705.459 698.833 704.807 697.028 704.503C695.224 704.199 693.362 704.249 691.548 704.651C689.734 705.053 688.004 705.798 686.457 706.844L694.11 718.084L701.762 729.325Z" fill="#2F2B2B"/>
<circle cx="694" cy="744" r="2" fill="#414141"/>
<path d="M739 751C739 752.105 739.895 753 741 753C742.105 753 743 752.105 743 751C743 749.895 742.105 749 741 749C739.895 749 739 749.895 739 751Z" fill="#414141"/>
<circle cx="680.5" cy="757.5" r="4.5" fill="#414141"/>
<circle r="4.5" transform="matrix(-1 0 0 1 749.5 763.5)" fill="#414141"/>
<circle cx="676" cy="744" r="2" fill="#414141"/>
<circle r="2" transform="matrix(-1 0 0 1 757 754)" fill="#414141"/>
<circle cx="670" cy="771" r="4" fill="#414141"/>
<circle r="4" transform="matrix(-1 0 0 1 767 765)" fill="#414141"/>
<circle cx="651" cy="767" r="3" fill="#414141"/>
<circle r="3" transform="matrix(-1 0 0 1 773 778)" fill="#414141"/>
<circle cx="656" cy="748" r="5" fill="#414141"/>
<circle r="5" transform="matrix(-1 0 0 1 776 751)" fill="#414141"/>
<path d="M569.009 368.248H643.926V462.696C643.926 483.56 627.013 500.473 606.15 500.473C585.187 500.473 568.232 483.404 568.374 462.441L569.009 368.248Z" fill="#555555"/>
<path d="M674.789 368.248H749.706V462.696C749.706 483.56 732.793 500.473 711.93 500.473C690.966 500.473 674.012 483.404 674.154 462.441L674.789 368.248Z" fill="#555555"/>
<path d="M779.688 368.248H854.605V462.696C854.605 483.56 837.691 500.473 816.828 500.473C795.865 500.473 778.911 483.404 779.052 462.441L779.688 368.248Z" fill="#555555"/>
</svg>
