<svg width="137" height="132" viewBox="0 0 137 132" fill="none" xmlns="http://www.w3.org/2000/svg">
<path d="M45.9754 0C45.2117 5.59494 41.3932 22.5823 45.9754 30.0334C50.375 32.9055 61.3557 32.6731 60.9174 22.1141C60.4791 11.5551 51.1553 2.77257 45.9754 0Z" fill="#DBADAD"/>
<path d="M45.9707 0C58.6891 11.0866 61.5476 29.3803 49.2871 29.9338C53.6768 32.8036 61.3166 32.6464 60.8793 22.0961C60.442 11.5457 51.139 2.7703 45.9707 0Z" fill="#582D05"/>
<path d="M119.079 0.896515C119.843 6.49147 123.662 23.4789 119.079 30.93C114.68 33.8021 103.699 33.5697 104.137 23.0107C104.575 12.4517 113.899 3.66909 119.079 0.896515Z" fill="#DBADAD"/>
<path d="M119.066 0.896515C106.334 11.9676 103.473 30.2357 115.746 30.7883C111.352 33.6541 103.704 33.4972 104.142 22.9616C104.58 12.426 113.892 3.66293 119.066 0.896515Z" fill="#582D05"/>
<rect x="33" y="19.1257" width="103" height="63.2544" rx="31.6272" fill="#522F0E"/>
<rect x="37" y="27" width="94.7321" height="47.0174" rx="23.5087" fill="#E3C2C2"/>
<path d="M52.278 44.0258C50.5199 43.4317 46.003 42.8796 42 45.4242M53.1345 45.4242C51.4966 45.0129 47.5988 44.8594 45.1104 47.5355M53.1345 43.3403C51.7145 41.887 48.2524 39.2273 45.7641 40.2144" stroke="#3D3939" stroke-linecap="round" stroke-linejoin="round"/>
<path d="M113.803 44.0258C115.547 43.4317 120.029 42.8796 124 45.4242M112.953 45.4242C114.578 45.0129 118.445 44.8594 120.914 47.5355M112.953 43.3403C114.362 41.887 117.797 39.2273 120.266 40.2144" stroke="#3D3939" stroke-linecap="round" stroke-linejoin="round"/>
<ellipse cx="56.2463" cy="51.3471" rx="9.77555" ry="9.76992" fill="#CE6300"/>
<path d="M59.927 44.7026C57.0777 41.4606 45.1541 43.6511 48.8364 54.6039C49.0578 51.5224 53.2661 44.7026 59.927 44.7026Z" fill="black" fill-opacity="0.33"/>
<path d="M66.0218 51.3471C66.0218 56.7429 61.6451 61.117 56.2463 61.117C50.8474 61.117 46.4707 56.7429 46.4707 51.3471C46.4707 45.9513 50.8474 41.5772 56.2463 41.5772C61.6451 41.5772 66.0218 45.9513 66.0218 51.3471ZM48.8168 51.3471C48.8168 55.4479 52.1431 58.7722 56.2463 58.7722C60.3494 58.7722 63.6757 55.4479 63.6757 51.3471C63.6757 47.2463 60.3494 43.922 56.2463 43.922C52.1431 43.922 48.8168 47.2463 48.8168 51.3471Z" fill="#272626"/>
<ellipse cx="110.779" cy="51.3471" rx="9.77555" ry="9.76992" fill="#CE6300"/>
<path d="M114.722 44.7026C111.873 41.4606 99.9495 43.6511 103.632 54.6039C103.853 51.5224 108.061 44.7026 114.722 44.7026Z" fill="black" fill-opacity="0.33"/>
<path d="M120.555 51.3471C120.555 56.7429 116.178 61.117 110.779 61.117C105.381 61.117 101.004 56.7429 101.004 51.3471C101.004 45.9513 105.381 41.5772 110.779 41.5772C116.178 41.5772 120.555 45.9513 120.555 51.3471ZM103.35 51.3471C103.35 55.4479 106.676 58.7722 110.779 58.7722C114.883 58.7722 118.209 55.4479 118.209 51.3471C118.209 47.2463 114.883 43.922 110.779 43.922C106.676 43.922 103.35 47.2463 103.35 51.3471Z" fill="#272626"/>
<ellipse cx="60.7623" cy="49.4632" rx="1.92881" ry="1.9277" fill="#D2D2D2"/>
<ellipse cx="115.295" cy="49.4632" rx="1.92881" ry="1.9277" fill="#D2D2D2"/>
<path d="M11.5897 43C10.9076 47.9974 7.49687 63.1706 11.5897 69.8259C15.5194 72.3914 25.3274 72.1838 24.9359 62.7524C24.5444 53.3211 16.2164 45.4765 11.5897 43Z" fill="#DCCBCB"/>
<path d="M11.585 43C22.9451 52.9026 25.4983 69.2426 14.5472 69.7369C18.4681 72.3003 25.292 72.1599 24.9014 62.7362C24.5107 53.3126 16.2013 45.4744 11.585 43Z" fill="white"/>
<path d="M76.8858 43.8008C77.568 48.7982 80.9788 63.9714 76.8858 70.6267C72.956 73.1922 63.1477 72.9846 63.5392 63.5532C63.9307 54.1219 72.259 46.2772 76.8858 43.8008Z" fill="#DCCBCB"/>
<path d="M76.874 43.8008C65.5022 53.6895 62.9463 70.0066 73.9088 70.5002C69.9838 73.06 63.1529 72.9198 63.5439 63.5094C63.9349 54.099 72.2529 46.2717 76.874 43.8008Z" fill="white"/>
<rect y="60.0832" width="92" height="56.499" rx="28.2495" fill="#CECECD"/>
<rect x="4" y="67" width="84.6151" height="41.9961" rx="20.9981" fill="white"/>
<path d="M16.278 81.0258C14.5199 80.4317 10.003 79.8796 6 82.4242M17.1345 82.4242C15.4966 82.0129 11.5988 81.8594 9.11044 84.5355M17.1345 80.3403C15.7145 78.887 12.2524 76.2273 9.76409 77.2144" stroke="#3D3939" stroke-linecap="round" stroke-linejoin="round"/>
<path d="M77.8029 81.0258C79.5472 80.4317 84.0285 79.8796 88 82.4242M76.9532 82.4242C78.5782 82.0129 82.4453 81.8594 84.914 84.5355M76.9532 80.3403C78.362 78.887 81.7968 76.2273 84.2656 77.2144" stroke="#3D3939" stroke-linecap="round" stroke-linejoin="round"/>
<ellipse cx="20.2463" cy="88.3471" rx="9.77555" ry="9.76992" fill="#CE6300"/>
<path d="M23.927 81.7026C21.0777 78.4606 9.15414 80.6511 12.8364 91.6039C13.0578 88.5224 17.2661 81.7026 23.927 81.7026Z" fill="black" fill-opacity="0.33"/>
<path d="M30.0218 88.3471C30.0218 93.7429 25.6451 98.117 20.2463 98.117C14.8474 98.117 10.4707 93.7429 10.4707 88.3471C10.4707 82.9513 14.8474 78.5772 20.2463 78.5772C25.6451 78.5772 30.0218 82.9513 30.0218 88.3471ZM12.8168 88.3471C12.8168 92.4479 16.1431 95.7722 20.2463 95.7722C24.3494 95.7722 27.6757 92.4479 27.6757 88.3471C27.6757 84.2463 24.3494 80.922 20.2463 80.922C16.1431 80.922 12.8168 84.2463 12.8168 88.3471Z" fill="#272626"/>
<ellipse cx="74.7795" cy="88.3471" rx="9.77555" ry="9.76992" fill="#CE6300"/>
<path d="M78.7224 81.7026C75.8731 78.4606 63.9495 80.6511 67.6318 91.6039C67.8532 88.5224 72.0615 81.7026 78.7224 81.7026Z" fill="black" fill-opacity="0.33"/>
<path d="M84.555 88.3471C84.555 93.7429 80.1783 98.117 74.7795 98.117C69.3806 98.117 65.0039 93.7429 65.0039 88.3471C65.0039 82.9513 69.3806 78.5772 74.7795 78.5772C80.1783 78.5772 84.555 82.9513 84.555 88.3471ZM67.35 88.3471C67.35 92.4479 70.6763 95.7722 74.7795 95.7722C78.8826 95.7722 82.2089 92.4479 82.2089 88.3471C82.2089 84.2463 78.8826 80.922 74.7795 80.922C70.6763 80.922 67.35 84.2463 67.35 88.3471Z" fill="#272626"/>
<ellipse cx="24.7623" cy="86.4632" rx="1.92881" ry="1.9277" fill="#D2D2D2"/>
<ellipse cx="79.2945" cy="86.4632" rx="1.92881" ry="1.9277" fill="#D2D2D2"/>
<path d="M55.7157 57C55.0262 62.0517 51.5784 77.3898 55.7157 84.1175C59.6882 86.7108 69.6028 86.501 69.207 76.9671C68.8113 67.4333 60.3927 59.5034 55.7157 57Z" fill="#DBADAD"/>
<path d="M55.7114 57C67.195 67.0103 69.776 83.5279 58.7058 84.0276C62.6694 86.6188 69.5674 86.4769 69.1726 76.9508C68.7777 67.4247 60.378 59.5013 55.7114 57Z" fill="#AD6F36"/>
<path d="M121.722 57.8095C122.412 62.8612 125.86 78.1994 121.722 84.927C117.75 87.5204 107.835 87.3105 108.231 77.7766C108.626 68.2428 117.045 60.3129 121.722 57.8095Z" fill="#DBADAD"/>
<path d="M121.71 57.8095C110.215 67.8057 107.631 84.3002 118.712 84.7992C114.745 87.3868 107.84 87.245 108.235 77.7323C108.63 68.2196 117.039 60.3073 121.71 57.8095Z" fill="#AD6F36"/>
<rect x="44" y="74.2689" width="93" height="57.1132" rx="28.5566" fill="#7E5312"/>
<rect x="48" y="82" width="85.5348" height="42.4526" rx="21.2263" fill="#AF8024"/>
<path d="M59.278 96.0258C57.5199 95.4317 53.003 94.8796 49 97.4242M60.1345 97.4242C58.4966 97.0129 54.5988 96.8594 52.1104 99.5355M60.1345 95.3403C58.7145 93.887 55.2524 91.2273 52.7641 92.2144" stroke="#3D3939" stroke-linecap="round" stroke-linejoin="round"/>
<path d="M120.803 96.0258C122.547 95.4317 127.029 94.8796 131 97.4242M119.953 97.4242C121.578 97.0129 125.445 96.8594 127.914 99.5355M119.953 95.3403C121.362 93.887 124.797 91.2273 127.266 92.2144" stroke="#3D3939" stroke-linecap="round" stroke-linejoin="round"/>
<ellipse cx="63.2463" cy="103.347" rx="9.77555" ry="9.76992" fill="#CE6300"/>
<path d="M66.927 96.7026C64.0777 93.4606 52.1541 95.6511 55.8364 106.604C56.0578 103.522 60.2661 96.7026 66.927 96.7026Z" fill="black" fill-opacity="0.33"/>
<path d="M73.0218 103.347C73.0218 108.743 68.6451 113.117 63.2463 113.117C57.8474 113.117 53.4707 108.743 53.4707 103.347C53.4707 97.9513 57.8474 93.5772 63.2463 93.5772C68.6451 93.5772 73.0218 97.9513 73.0218 103.347ZM55.8168 103.347C55.8168 107.448 59.1431 110.772 63.2463 110.772C67.3494 110.772 70.6757 107.448 70.6757 103.347C70.6757 99.2463 67.3494 95.922 63.2463 95.922C59.1431 95.922 55.8168 99.2463 55.8168 103.347Z" fill="#272626"/>
<ellipse cx="117.779" cy="103.347" rx="9.77555" ry="9.76992" fill="#CE6300"/>
<path d="M121.722 96.7026C118.873 93.4606 106.95 95.6511 110.632 106.604C110.853 103.522 115.061 96.7026 121.722 96.7026Z" fill="black" fill-opacity="0.33"/>
<path d="M127.555 103.347C127.555 108.743 123.178 113.117 117.779 113.117C112.381 113.117 108.004 108.743 108.004 103.347C108.004 97.9513 112.381 93.5772 117.779 93.5772C123.178 93.5772 127.555 97.9513 127.555 103.347ZM110.35 103.347C110.35 107.448 113.676 110.772 117.779 110.772C121.883 110.772 125.209 107.448 125.209 103.347C125.209 99.2463 121.883 95.922 117.779 95.922C113.676 95.922 110.35 99.2463 110.35 103.347Z" fill="#272626"/>
<ellipse cx="67.7623" cy="101.463" rx="1.92881" ry="1.9277" fill="#D2D2D2"/>
<ellipse cx="122.295" cy="101.463" rx="1.92881" ry="1.9277" fill="#D2D2D2"/>
</svg>
