<svg width="137" height="103" viewBox="0 0 137 103" fill="none" xmlns="http://www.w3.org/2000/svg">
<path d="M16.0678 0C15.1221 6.92853 10.3934 27.965 16.0678 37.192C21.5161 40.7488 35.1141 40.461 34.5714 27.3852C34.0286 14.3094 22.4824 3.43343 16.0678 0Z" fill="#C4C4C4"/>
<path d="M16.062 0C31.8119 13.7292 35.3518 36.3833 20.1689 37.0687C25.6049 40.6226 35.0657 40.4279 34.5242 27.3628C33.9826 14.2977 22.4622 3.43062 16.062 0Z" fill="#A9A8A8"/>
<path d="M106.597 1.11029C107.542 8.03884 112.271 29.0753 106.597 38.3024C101.148 41.8592 87.5498 41.5714 88.0926 28.4955C88.6354 15.4197 100.182 4.54373 106.597 1.11029Z" fill="#C4C4C4"/>
<path d="M106.58 1.11029C90.8139 14.8203 87.2704 37.4427 102.469 38.127C97.0273 41.6759 87.5568 41.4816 88.0989 28.4348C88.641 15.3879 100.173 4.53611 106.58 1.11029Z" fill="#A9A8A8"/>
<rect y="23.6845" width="127.551" height="78.3315" rx="39.1658" fill="#E4E4E4"/>
<rect x="5" y="38" width="117.312" height="58.2244" rx="29.1122" fill="#C4C4C4"/>
<ellipse cx="25.2881" cy="77.9615" rx="9.74518" ry="5.42769" fill="#E49A9A"/>
<ellipse cx="25.2881" cy="77.9615" rx="9.74518" ry="5.42769" fill="#E49A9A"/>
<ellipse cx="102.262" cy="78.825" rx="9.74518" ry="5.42769" fill="#E49A9A"/>
<ellipse cx="102.262" cy="78.825" rx="9.74518" ry="5.42769" fill="#E49A9A"/>
<path d="M19.8889 52.5432C17.4153 51.7068 11.06 50.9296 5.42773 54.5119M21.094 54.5119C18.7895 53.9329 13.3053 53.7167 9.80415 57.4843M21.094 51.5781C19.0961 49.5322 14.225 45.7878 10.7238 47.1775" stroke="#3D3939" stroke-linecap="round" stroke-linejoin="round"/>
<path d="M103.196 52.6676C105.65 51.8312 111.955 51.054 117.543 54.6363M102 54.6363C104.286 54.0573 109.727 53.8411 113.201 57.6087M102 51.7025C103.982 49.6566 108.815 45.9122 112.289 47.3019" stroke="#3D3939" stroke-linecap="round" stroke-linejoin="round"/>
<circle cx="25.473" cy="62.8503" r="13.7543" fill="#CE6300"/>
<path d="M30.6509 53.496C26.6418 48.9318 9.8653 52.0157 15.0463 67.4353C15.3577 63.097 21.2789 53.496 30.6509 53.496Z" fill="black" fill-opacity="0.33"/>
<path d="M39.2273 62.8503C39.2273 70.4466 33.0693 76.6046 25.473 76.6046C17.8767 76.6046 11.7188 70.4466 11.7188 62.8503C11.7188 55.254 17.8767 49.096 25.473 49.096C33.0693 49.096 39.2273 55.254 39.2273 62.8503ZM15.0198 62.8503C15.0198 68.6234 19.6999 73.3035 25.473 73.3035C31.2462 73.3035 35.9263 68.6234 35.9263 62.8503C35.9263 57.0771 31.2462 52.397 25.473 52.397C19.6999 52.397 15.0198 57.0771 15.0198 62.8503Z" fill="#272626"/>
<circle cx="102.201" cy="62.8503" r="13.7543" fill="#CE6300"/>
<path d="M107.749 53.496C103.74 48.9318 86.9634 52.0157 92.1444 67.4353C92.4559 63.097 98.377 53.496 107.749 53.496Z" fill="black" fill-opacity="0.33"/>
<path d="M115.955 62.8503C115.955 70.4466 109.797 76.6046 102.201 76.6046C94.6048 76.6046 88.4468 70.4466 88.4468 62.8503C88.4468 55.254 94.6048 49.096 102.201 49.096C109.797 49.096 115.955 55.254 115.955 62.8503ZM91.7478 62.8503C91.7478 68.6234 96.4279 73.3035 102.201 73.3035C107.974 73.3035 112.654 68.6234 112.654 62.8503C112.654 57.0771 107.974 52.397 102.201 52.397C96.4279 52.397 91.7478 57.0771 91.7478 62.8503Z" fill="#272626"/>
<circle cx="31.8262" cy="60.1981" r="2.71385" fill="#D2D2D2"/>
<circle cx="108.554" cy="60.1981" r="2.71385" fill="#D2D2D2"/>
<path d="M63.6186 74.384C63.9237 77.6294 62.2604 83.9376 53.1665 83.2074" stroke="#313131" stroke-width="6" stroke-linecap="round" stroke-linejoin="round"/>
<path d="M64.2998 74.384C64.0198 77.6294 65.5461 83.9376 73.8911 83.2074" stroke="#313131" stroke-width="6" stroke-linecap="round" stroke-linejoin="round"/>
<path d="M67.6613 73.7078C65.9781 76.1874 62.3308 76.206 60.6223 73.7438V73.7438C58.6636 70.9212 60.672 67.059 64.1076 67.0414V67.0414C67.5432 67.0239 69.591 70.8653 67.6613 73.7078V73.7078Z" fill="#363636"/>
<circle cx="60.1734" cy="76.2672" r="0.279879" fill="#414141"/>
<path d="M72.9998 79.2799C72.9998 79.4345 73.1251 79.5598 73.2797 79.5598C73.4343 79.5598 73.5596 79.4345 73.5596 79.2799C73.5596 79.1253 73.4343 79 73.2797 79C73.1251 79 72.9998 79.1253 72.9998 79.2799Z" fill="#414141"/>
<circle cx="57.6297" cy="78.6297" r="0.629728" fill="#414141"/>
<circle r="0.629728" transform="matrix(-1 0 0 1 69.6295 76.6297)" fill="#414141"/>
<circle cx="57.6549" cy="76.2672" r="0.279879" fill="#414141"/>
<circle r="0.279879" transform="matrix(-1 0 0 1 68.9906 77.6665)" fill="#414141"/>
<circle cx="55.5598" cy="78.5598" r="0.559758" fill="#414141"/>
<circle r="0.559758" transform="matrix(-1 0 0 1 70.3895 79.2059)" fill="#414141"/>
<circle cx="54.1566" cy="79.4857" r="0.419819" fill="#414141"/>
<circle r="0.419819" transform="matrix(-1 0 0 1 74.42 79.4198)" fill="#414141"/>
<circle cx="54.8564" cy="76.8269" r="0.699698" fill="#414141"/>
<circle r="0.699698" transform="matrix(-1 0 0 1 71.6489 77.2467)" fill="#414141"/>
<path d="M42.6829 23.6845H53.1668V36.9016C53.1668 39.8212 50.8 42.188 47.8803 42.188V42.188C44.9468 42.188 42.5742 39.7994 42.594 36.8659L42.6829 23.6845Z" fill="#555555"/>
<path d="M57.4856 23.6845H67.9695V36.9016C67.9695 39.8212 65.6027 42.188 62.6831 42.188V42.188C59.7495 42.188 57.377 39.7994 57.3967 36.8659L57.4856 23.6845Z" fill="#555555"/>
<path d="M72.1648 23.6845H82.6487V36.9016C82.6487 39.8212 80.2819 42.188 77.3623 42.188V42.188C74.4287 42.188 72.0562 39.7994 72.0759 36.8659L72.1648 23.6845Z" fill="#555555"/>
<rect x="103.582" y="0.856079" width="11.1286" height="54.7869" rx="5.5643" fill="#F35B5B"/>
<rect x="82.1807" y="33.3858" width="11.1286" height="54.7869" rx="5.5643" transform="rotate(-89.8306 82.1807 33.3858)" fill="#F35B5B"/>
</svg>
