<svg width="912" height="729" viewBox="0 0 912 729" fill="none" xmlns="http://www.w3.org/2000/svg">
<path d="M114.822 0C108.063 49.5109 74.2727 199.836 114.822 265.772C153.755 291.189 250.925 289.132 247.047 195.693C243.168 102.254 160.66 24.5351 114.822 0Z" fill="#C4C4C4"/>
<path d="M114.778 0C227.326 98.1083 252.621 259.993 144.125 264.891C182.971 290.286 250.577 288.896 246.707 195.533C242.837 102.17 160.513 24.515 114.778 0Z" fill="#A9A8A8"/>
<path d="M761.732 7.93349C768.49 57.4445 802.282 207.77 761.732 273.706C722.798 299.123 625.625 297.066 629.503 203.627C633.382 110.188 715.893 32.4686 761.732 7.93349Z" fill="#C4C4C4"/>
<path d="M761.615 7.93349C648.952 105.904 623.63 267.562 732.238 272.453C693.352 297.813 625.676 296.424 629.55 203.193C633.424 109.961 715.833 32.4142 761.615 7.93349Z" fill="#A9A8A8"/>
<rect y="169.248" width="911.47" height="559.752" rx="279.876" fill="#E4E4E4"/>
<rect x="37.0229" y="255.635" width="838.306" height="416.068" rx="208.034" fill="#C4C4C4"/>
<rect x="37.0229" y="255.635" width="838.306" height="416.068" rx="208.034" fill="#C4C4C4"/>
<ellipse cx="180.707" cy="557.108" rx="69.6385" ry="38.786" fill="#E49A9A"/>
<ellipse cx="180.707" cy="557.108" rx="69.6385" ry="38.786" fill="#E49A9A"/>
<ellipse cx="730.763" cy="563.278" rx="69.6385" ry="38.786" fill="#E49A9A"/>
<ellipse cx="730.763" cy="563.278" rx="69.6385" ry="38.786" fill="#E49A9A"/>
<path d="M142.125 375.47C124.448 369.493 79.0338 363.939 38.786 389.538M150.736 389.538C134.269 385.401 95.0785 383.856 70.0596 410.779M150.736 368.574C136.459 353.954 101.65 327.196 76.6316 337.127" stroke="#3D3939" stroke-width="5" stroke-linecap="round" stroke-linejoin="round"/>
<path d="M770.159 375.47C787.697 369.493 832.754 363.939 872.685 389.538M761.616 389.538C777.954 385.401 816.835 383.856 841.657 410.779M761.616 368.574C775.78 353.954 810.315 327.196 835.137 337.127" stroke="#3D3939" stroke-width="4" stroke-linecap="round" stroke-linejoin="round"/>
<circle cx="182.03" cy="449.124" r="98.2872" fill="#CE6300"/>
<path d="M219.03 382.278C190.382 349.663 70.498 371.701 107.521 481.888C109.747 450.887 152.059 382.278 219.03 382.278Z" fill="black" fill-opacity="0.33"/>
<path d="M280.317 449.124C280.317 503.406 236.312 547.411 182.03 547.411C127.747 547.411 83.7424 503.406 83.7424 449.124C83.7424 394.841 127.747 350.837 182.03 350.837C236.312 350.837 280.317 394.841 280.317 449.124ZM107.331 449.124C107.331 490.379 140.775 523.822 182.03 523.822C223.284 523.822 256.728 490.379 256.728 449.124C256.728 407.869 223.284 374.426 182.03 374.426C140.775 374.426 107.331 407.869 107.331 449.124Z" fill="#272626"/>
<circle cx="730.322" cy="449.124" r="98.2872" fill="#CE6300"/>
<path d="M769.968 382.278C741.319 349.663 621.435 371.701 658.458 481.888C660.684 450.887 702.996 382.278 769.968 382.278Z" fill="black" fill-opacity="0.33"/>
<path d="M828.61 449.124C828.61 503.406 784.605 547.411 730.322 547.411C676.04 547.411 632.035 503.406 632.035 449.124C632.035 394.841 676.04 350.837 730.322 350.837C784.605 350.837 828.61 394.841 828.61 449.124ZM655.624 449.124C655.624 490.379 689.068 523.822 730.322 523.822C771.577 523.822 805.021 490.379 805.021 449.124C805.021 407.869 771.577 374.426 730.322 374.426C689.068 374.426 655.624 407.869 655.624 449.124Z" fill="#272626"/>
<circle cx="227.427" cy="430.172" r="19.393" fill="#D2D2D2"/>
<circle cx="775.72" cy="430.172" r="19.393" fill="#D2D2D2"/>
<path d="M454.616 531.544C456.796 554.735 444.911 599.813 379.926 594.595" stroke="#313131" stroke-width="6" stroke-linecap="round" stroke-linejoin="round"/>
<path d="M459.479 531.544C457.479 554.735 468.385 599.813 528.018 594.595" stroke="#313131" stroke-width="6" stroke-linecap="round" stroke-linejoin="round"/>
<path d="M476.051 528.259C466.588 542.199 446.082 542.304 436.477 528.461L424.031 510.525C413.019 494.656 424.31 472.942 443.626 472.843L468.333 472.717C487.649 472.618 499.162 494.215 488.313 510.196L476.051 528.259Z" fill="#363636"/>
<path d="M489.948 507.137C488.474 506.129 486.816 505.421 485.068 505.053C483.321 504.686 481.518 504.667 479.763 504.996C478.008 505.326 476.336 505.997 474.84 506.973C473.345 507.949 472.057 509.21 471.049 510.684C470.041 512.158 469.333 513.816 468.965 515.563C468.598 517.311 468.579 519.113 468.908 520.868C469.237 522.623 469.909 524.296 470.885 525.791C471.861 527.286 473.122 528.575 474.596 529.583L482.272 518.36L489.948 507.137Z" fill="#2F2B2B"/>
<path d="M437.762 530.325C439.309 529.278 440.643 527.952 441.687 526.42C442.732 524.889 443.467 523.182 443.85 521.399C444.233 519.615 444.258 517.789 443.921 516.025C443.585 514.261 442.894 512.593 441.89 511.117C440.885 509.641 439.585 508.386 438.064 507.422C436.544 506.459 434.833 505.807 433.028 505.503C431.224 505.199 429.362 505.249 427.548 505.651C425.734 506.053 424.004 506.798 422.457 507.844L430.109 519.084L437.762 530.325Z" fill="#2F2B2B"/>
<circle cx="430" cy="545" r="2" fill="#414141"/>
<path d="M475 552C475 553.105 475.895 554 477 554C478.105 554 479 553.105 479 552C479 550.895 478.105 550 477 550C475.895 550 475 550.895 475 552Z" fill="#414141"/>
<circle cx="416.5" cy="558.5" r="4.5" fill="#414141"/>
<circle r="4.5" transform="matrix(-1 0 0 1 485.5 564.5)" fill="#414141"/>
<circle cx="412" cy="545" r="2" fill="#414141"/>
<circle r="2" transform="matrix(-1 0 0 1 493 555)" fill="#414141"/>
<circle cx="406" cy="572" r="4" fill="#414141"/>
<circle r="4" transform="matrix(-1 0 0 1 503 566)" fill="#414141"/>
<circle cx="387" cy="568" r="3" fill="#414141"/>
<circle r="3" transform="matrix(-1 0 0 1 509 579)" fill="#414141"/>
<circle cx="392" cy="549" r="5" fill="#414141"/>
<circle r="5" transform="matrix(-1 0 0 1 512 552)" fill="#414141"/>
<path d="M305.009 169.248H379.926V263.696C379.926 284.56 363.013 301.473 342.149 301.473C321.186 301.473 304.232 284.404 304.374 263.441L305.009 169.248Z" fill="#555555"/>
<path d="M410.789 169.248H485.706V263.696C485.706 284.56 468.793 301.473 447.929 301.473C426.966 301.473 410.012 284.404 410.153 263.441L410.789 169.248Z" fill="#555555"/>
<path d="M515.687 169.248H590.604V263.696C590.604 284.56 573.691 301.473 552.828 301.473C531.865 301.473 514.911 284.404 515.052 263.441L515.687 169.248Z" fill="#555555"/>
</svg>
