<?xml version="1.0" encoding="UTF-8" standalone="no"?>
<svg
   xmlns:dc="http://purl.org/dc/elements/1.1/"
   xmlns:cc="http://creativecommons.org/ns#"
   xmlns:rdf="http://www.w3.org/1999/02/22-rdf-syntax-ns#"
   xmlns:svg="http://www.w3.org/2000/svg"
   xmlns="http://www.w3.org/2000/svg"
   xmlns:sodipodi="http://sodipodi.sourceforge.net/DTD/sodipodi-0.dtd"
   xmlns:inkscape="http://www.inkscape.org/namespaces/inkscape"
   sodipodi:docname="dog.svg"
   inkscape:version="1.0 (4035a4fb49, 2020-05-01)"
   id="svg8"
   version="1.1"
   viewBox="0 0 148.50203 202.99971"
   height="202.99971mm"
   width="148.50203mm">
  <defs
     id="defs2">
    <inkscape:path-effect
       fuse_tolerance="0"
       hide_knot="false"
       vertical_pattern="false"
       prop_units="false"
       tang_offset="0"
       normal_offset="0"
       spacing="0"
       scale_y_rel="false"
       prop_scale="-0.033092955"
       copytype="single_stretched"
       pattern="M 0,5 C 0,2.24 2.24,0 5,0 7.76,0 10,2.24 10,5 10,7.76 7.76,10 5,10 2.24,10 0,7.76 0,5 Z"
       lpeversion="1"
       is_visible="true"
       id="path-effect112"
       effect="skeletal" />
    <inkscape:path-effect
       fuse_tolerance="0"
       hide_knot="false"
       vertical_pattern="false"
       prop_units="false"
       tang_offset="0"
       normal_offset="0"
       spacing="0"
       scale_y_rel="false"
       prop_scale="-0.0851869"
       copytype="single_stretched"
       pattern="M 0,5 C 0,2.24 2.24,0 5,0 7.76,0 10,2.24 10,5 10,7.76 7.76,10 5,10 2.24,10 0,7.76 0,5 Z"
       lpeversion="1"
       is_visible="true"
       id="path-effect108"
       effect="skeletal" />
    <inkscape:path-effect
       fuse_tolerance="0"
       hide_knot="false"
       vertical_pattern="false"
       prop_units="false"
       tang_offset="0"
       normal_offset="0"
       spacing="0"
       scale_y_rel="false"
       prop_scale="-0.0851869"
       copytype="single_stretched"
       pattern="M 0,5 C 0,2.24 2.24,0 5,0 7.76,0 10,2.24 10,5 10,7.76 7.76,10 5,10 2.24,10 0,7.76 0,5 Z"
       lpeversion="1"
       is_visible="true"
       id="path-effect104"
       effect="skeletal" />
    <inkscape:path-effect
       fuse_tolerance="0"
       hide_knot="false"
       vertical_pattern="false"
       prop_units="false"
       tang_offset="0"
       normal_offset="0"
       spacing="0"
       scale_y_rel="false"
       prop_scale="-0.0851869"
       copytype="single_stretched"
       pattern="M 0,5 C 0,2.24 2.24,0 5,0 7.76,0 10,2.24 10,5 10,7.76 7.76,10 5,10 2.24,10 0,7.76 0,5 Z"
       lpeversion="1"
       is_visible="true"
       id="path-effect100"
       effect="skeletal" />
    <inkscape:path-effect
       fuse_tolerance="0"
       hide_knot="false"
       vertical_pattern="false"
       prop_units="false"
       tang_offset="0"
       normal_offset="0"
       spacing="0"
       scale_y_rel="false"
       prop_scale="-0.0851869"
       copytype="single_stretched"
       pattern="m -6.5146948,5 c 0,-2.76 2.24,-5 5,-5 2.76,0 5,2.24 5,5 0,2.76 -2.24,5 -5,5 -2.76,0 -5,-2.24 -5,-5 z"
       lpeversion="1"
       is_visible="true"
       id="path-effect96"
       effect="skeletal" />
    <inkscape:path-effect
       fuse_tolerance="0"
       hide_knot="false"
       vertical_pattern="false"
       prop_units="false"
       tang_offset="0"
       normal_offset="0"
       spacing="0"
       scale_y_rel="false"
       prop_scale="-0.0851869"
       copytype="single_stretched"
       pattern="M 0,5 C 0,2.24 2.24,0 5,0 7.76,0 10,2.24 10,5 10,7.76 7.76,10 5,10 2.24,10 0,7.76 0,5 Z"
       lpeversion="1"
       is_visible="true"
       id="path-effect92"
       effect="skeletal" />
    <inkscape:path-effect
       fuse_tolerance="0"
       hide_knot="false"
       vertical_pattern="false"
       prop_units="false"
       tang_offset="0"
       normal_offset="0"
       spacing="0"
       scale_y_rel="false"
       prop_scale="-0.0851869"
       copytype="single_stretched"
       pattern="M 0,5 C 0,2.24 2.24,0 5,0 7.76,0 10,2.24 10,5 10,7.76 7.76,10 5,10 2.24,10 0,7.76 0,5 Z"
       lpeversion="1"
       is_visible="true"
       id="path-effect88"
       effect="skeletal" />
  </defs>
  <sodipodi:namedview
     inkscape:window-maximized="0"
     inkscape:window-y="108"
     inkscape:window-x="868"
     inkscape:window-height="1004"
     inkscape:window-width="1078"
     showborder="false"
     showgrid="false"
     inkscape:document-rotation="0"
     inkscape:current-layer="layer10"
     inkscape:document-units="px"
     inkscape:cy="393.58014"
     inkscape:cx="611.66409"
     inkscape:zoom="0.35"
     inkscape:pageshadow="2"
     inkscape:pageopacity="0.0"
     borderopacity="1.0"
     bordercolor="#666666"
     pagecolor="#ffffff"
     id="base" />
  <metadata
     id="metadata5">
    <rdf:RDF>
      <cc:Work
         rdf:about="">
        <dc:format>image/svg+xml</dc:format>
        <dc:type
           rdf:resource="http://purl.org/dc/dcmitype/StillImage" />
        <dc:title></dc:title>
      </cc:Work>
    </rdf:RDF>
  </metadata>
  <g
     transform="translate(-858.42199,-18.37478)"
     inkscape:label="back"
     id="layer10"
     inkscape:groupmode="layer">
    <path
       inkscape:export-ydpi="100"
       inkscape:export-xdpi="100"
       sodipodi:nodetypes="ccccccccc"
       id="path201"
       d="m 930.89975,207.00025 c 0.005,0.002 -29.11368,-1.03619 -33.50891,1.70384 0,0 -4.37653,3.34088 -3.17381,5.51243 -0.30218,0.0137 -0.70961,2.97813 3.54132,3.60815 1.60148,0.27337 2.69839,-0.35028 3.74177,-1.06908 0.75154,0.85921 2.41965,1.86942 7.98468,-0.96885 l 30.7694,-6.28084 -4.20949,-3.17382 z"
       style="fill:#666666;stroke:none;stroke-width:0.264583px;stroke-linecap:butt;stroke-linejoin:miter;stroke-opacity:1" />
    <path
       inkscape:export-ydpi="100"
       inkscape:export-xdpi="100"
       sodipodi:nodetypes="cccccsccccc"
       id="path207"
       d="m 973.28869,209.20982 c 13.98512,0.94494 26.26935,-11.1503 26.26935,-11.1503 15.54426,-13.27641 1.65706,-32.2616 1.65706,-32.2616 -8.66665,-11.53418 -17.34217,-24.60436 -20.33373,-32.29695 -2.62599,-6.68262 2.78191,-13.11885 4.50256,-12.83207 5.19985,0.50573 9.43322,11.69753 13.70895,8.91757 2.19962,-1.43016 1.63552,-4.71555 -1.8027,-8.63409 -17.20397,-15.50135 -22.82815,4.8253 -22.4254,7.67255 0.33072,12.47321 20.91347,41.27537 20.91347,41.27537 13.60715,23.24553 -17.00892,28.72619 -17.00892,28.72619 z"
       style="fill:#4d4d4d;stroke:none;stroke-width:0.264583px;stroke-linecap:butt;stroke-linejoin:miter;stroke-opacity:1" />
    <path
       inkscape:export-ydpi="100"
       inkscape:export-xdpi="100"
       sodipodi:nodetypes="cccccccc"
       id="path209"
       d="m 875.69827,124.45857 c 3.74786,-1.37329 2.23314,49.89568 -1.35976,64.25282 0,0 -2.87346,18.44676 -10.85015,21.04175 -0.28338,-0.0223 -7.00418,1.96064 -4.51406,5.56891 0.009,0.0422 -1.00018,2.67749 4.44173,2.57701 0.56823,1.97433 13.50814,1.82896 14.18358,-4.3814 l 11.71631,-76.61309 z"
       style="fill:#666666;stroke:none;stroke-width:0.264583px;stroke-linecap:butt;stroke-linejoin:miter;stroke-opacity:1" />
  </g>
  <g
     transform="translate(-858.42199,-18.37478)"
     style="opacity:1"
     inkscape:label="front"
     id="layer9"
     inkscape:groupmode="layer">
    <path
       inkscape:export-ydpi="100"
       inkscape:export-xdpi="100"
       sodipodi:nodetypes="ccccccccccccccccccccccccccccccccccccccc"
       id="path179"
       d="m 925.28709,34.277315 c 2.43945,-1.081158 3.73274,-3.931014 5.26711,-5.785434 0,0 5.02278,-5.03898 5.55732,2.578202 0,0 1.73726,29.399648 -2.93996,31.871891 0,0 -0.60136,6.614921 -4.87767,12.49485 -0.57215,-0.254291 -5.76792,10.020419 -5.14494,14.232103 0,0 0.20045,3.474504 0.53454,4.476764 0,0 13.49711,14.766639 14.63301,17.639789 0.0258,0.11595 22.43318,18.13123 30.43648,36.94815 0,0 33.07292,45.35714 2.83482,66.90179 0,0 -2.33486,3.12469 -12.892,3.52559 l -34.47777,0.80181 c 0,0 -6.81537,1.73725 -9.2208,1.06908 0,0 -5.21175,1.33635 -5.71288,-1.26953 0,0 -3.8086,0.4009 -2.20498,-4.07586 0,0 1.03567,-5.34539 4.84426,-5.41221 0,0 2.27179,-0.0668 12.82894,0.33409 0,0 11.02487,-0.60136 12.2944,-1.73725 0,0 -18.4416,2.40542 -25.39061,-33.54233 L 900.33929,157.2381 c -3.81313,12.56335 -3.35416,16.76782 -11.6347,37.56798 -2.11733,6.23677 -3.98079,9.97389 -3.77518,13.12961 0,0 1.73725,11.22532 -3.60814,12.56167 0,0 -5.34539,1.06908 -6.28083,-0.13363 0,0 -2.40543,0.93544 -6.41447,0.26727 0.008,-0.0601 -4.92211,0.14539 -5.20994,-2.73194 -0.32888,-1.23491 1.85951,-5.78215 8.28354,-6.35523 0.0122,0.099 3.25604,-9.39604 5.62887,-29.80448 1.68503,-9.3156 4.98503,-35.18045 1.85467,-46.10006 0,0 -14.16528,-26.19242 -7.75081,-41.560416 3.45621,-7.904754 6.76944,-15.725553 23.92062,-31.671439 0,0 -12.56167,-9.020347 -11.09168,-13.898016 0,0 -0.53454,-4.07586 1.13589,-5.746294 0,0 1.40317,-5.87993 3.67496,-6.347652 l 9.02034,-1.00226 c 0,0 -0.33408,-5.479026 18.90932,-3.207235 l 2.80633,-13.831198 3.60814,16.370259 c 0,0 0.73498,0.133633 1.87087,-0.467724"
       style="fill:#999999;stroke:none;stroke-width:0.264583px;stroke-linecap:butt;stroke-linejoin:miter;stroke-opacity:1" />
  </g>
</svg>
